<svg width="34" height="34" viewBox="0 0 34 34" fill="none" xmlns="http://www.w3.org/2000/svg">
<path d="M26.0163 14.9732C25.5341 15.4581 25.1648 16.0432 24.9348 16.6869C24.7048 17.3307 24.6196 18.0172 24.6854 18.6977L24.6625 18.6748C24.7302 19.4757 24.6221 20.2817 24.3458 21.0366C24.0696 21.7914 23.6319 22.4769 23.0633 23.0453C22.4946 23.6136 21.8087 24.0511 21.0533 24.327C20.298 24.6031 19.4915 24.7112 18.6901 24.6435L18.713 24.6664C17.7544 24.5773 16.7917 24.7857 15.9559 25.2634C15.1202 25.7412 14.4522 26.4648 14.0431 27.3358C13.6341 28.2069 13.5037 29.1827 13.6698 30.1305C13.8361 31.0782 14.2907 31.9517 14.9718 32.6317C15.6529 33.3117 16.5273 33.7653 17.4757 33.9305C18.4242 34.0958 19.4005 33.9646 20.2717 33.555C21.1428 33.1453 21.8663 32.4772 22.3435 31.6415C22.8208 30.8058 23.0286 29.8435 22.9385 28.8855L22.9627 28.9084C22.895 28.1076 23.003 27.3015 23.2792 26.5466C23.5555 25.7918 23.9933 25.1063 24.5619 24.5379C25.1306 23.9696 25.8165 23.532 26.5718 23.2561C27.3272 22.9801 28.1336 22.872 28.9351 22.9396L28.9109 22.9167C29.6939 22.9871 30.4821 22.8588 31.2024 22.5437C31.9225 22.2286 32.5516 21.7368 33.031 21.1142C33.5104 20.4915 33.8249 19.7578 33.9451 18.9813C34.0653 18.2048 33.9874 17.4106 33.7187 16.672C33.45 15.9336 32.9991 15.275 32.4078 14.757C31.8165 14.2391 31.104 13.8788 30.3363 13.7094C29.5686 13.54 28.7704 13.567 28.0159 13.7878C27.2614 14.0088 26.575 14.4165 26.0201 14.9732H26.0163Z" fill="#5B40FF"/>
<path d="M17.0296 21.2363L17.0054 21.2134C17.6863 21.282 18.3739 21.1984 19.0186 20.9687C19.6633 20.7389 20.2489 20.3689 20.7329 19.8851C21.2169 19.4013 21.5876 18.8159 21.8176 18.1714C22.0479 17.5268 22.1319 16.8392 22.0639 16.1582L22.0881 16.1811C22.0204 15.3798 22.1285 14.5735 22.4045 13.8183C22.6806 13.0632 23.1183 12.3774 23.6867 11.8088C24.2553 11.2403 24.941 10.8026 25.696 10.5265C26.4511 10.2503 27.2573 10.1423 28.0585 10.2099L28.0343 10.187C28.9927 10.2771 29.9554 10.0692 30.7913 9.59182C31.6274 9.11446 32.2956 8.39081 32.7052 7.5196C33.1148 6.6484 33.2456 5.67204 33.08 4.7237C32.9144 3.77535 32.4604 2.9012 31.7796 2.22046C31.099 1.53973 30.2249 1.08555 29.2767 0.919895C28.3285 0.754232 27.3523 0.885142 26.4812 1.29478C25.61 1.7044 24.8865 2.37281 24.4092 3.20884C23.9318 4.04485 23.724 5.00778 23.8141 5.96626L23.7912 5.94209C23.859 6.74336 23.7511 7.54979 23.4751 8.30505C23.1991 9.06031 22.7614 9.7462 22.193 10.3149C21.6244 10.8834 20.9386 11.3211 20.1835 11.5971C19.4282 11.8732 18.6219 11.981 17.8207 11.9132L17.8436 11.9374C17.1628 11.8688 16.475 11.9524 15.8304 12.1822C15.1858 12.4118 14.6002 12.7819 14.1161 13.2657C13.632 13.7495 13.2615 14.3349 13.0313 14.9795C12.8012 15.624 12.7171 16.3116 12.7852 16.9927L12.7623 16.9698C12.8297 17.7709 12.7215 18.5772 12.4453 19.3323C12.1691 20.0872 11.7315 20.773 11.1631 21.3415C10.5946 21.91 9.90901 22.3476 9.15405 22.6239C8.39908 22.9001 7.59295 23.0083 6.79188 22.9409L6.81477 22.9638C5.8564 22.8737 4.89359 23.0816 4.05767 23.559C3.22176 24.0364 2.55343 24.76 2.14385 25.6312C1.73427 26.5025 1.60336 27.4788 1.76901 28.4271C1.93465 29.3755 2.38878 30.2496 3.06942 30.9303C3.75008 31.6111 4.62412 32.0653 5.57236 32.2309C6.52059 32.3965 7.49683 32.2656 8.36793 31.856C9.23902 31.4464 9.96259 30.7781 10.4399 29.9421C10.9172 29.1059 11.1251 28.1431 11.035 27.1846L11.0592 27.2075C10.9915 26.4062 11.0996 25.5999 11.3758 24.8447C11.6518 24.0896 12.0894 23.4038 12.6579 22.8352C13.2264 22.2667 13.9121 21.829 14.6671 21.5529C15.4223 21.2768 16.2284 21.1686 17.0296 21.2363Z" fill="#5B40FF"/>
<path d="M7.97887 19.026C8.4612 18.5412 8.83048 17.956 9.06035 17.3121C9.29023 16.6682 9.37503 15.9815 9.30871 15.3011L9.33287 15.324C9.26517 14.5228 9.37329 13.7164 9.6497 12.9612C9.92612 12.206 10.3642 11.5203 10.9333 10.9518C11.5024 10.3834 12.1887 9.94594 12.9444 9.67003C13.7002 9.39411 14.5071 9.2864 15.3089 9.35441L15.2847 9.33152C16.2432 9.42127 17.2061 9.21335 18.0421 8.73614C18.878 8.25894 19.5463 7.53567 19.9559 6.66497C20.3654 5.79426 20.4962 4.81851 20.3305 3.87077C20.1649 2.92303 19.7106 2.04945 19.0299 1.36914C18.3492 0.688835 17.4749 0.234925 16.5266 0.0693183C15.5783 -0.0963007 14.6018 0.0344598 13.7306 0.443732C12.8593 0.853004 12.1356 1.52088 11.6581 2.35629C11.1805 3.1917 10.9725 4.15398 11.0623 5.11188L11.0394 5.08899C11.1071 5.88999 10.9989 6.69611 10.7227 7.45107C10.4464 8.20603 10.0086 8.89164 9.43986 9.46005C8.87108 10.0285 8.18502 10.466 7.42957 10.742C6.67412 11.0181 5.86749 11.1262 5.06596 11.0585L5.08887 11.0814C4.30569 11.0112 3.51745 11.1398 2.7972 11.4551C2.07696 11.7703 1.44799 12.2622 0.968601 12.8851C0.489212 13.5079 0.174913 14.2417 0.0548081 15.0182C-0.0652841 15.7949 0.0127116 16.5892 0.281567 17.3276C0.550422 18.0661 1.00146 18.7247 1.59286 19.2426C2.18426 19.7606 2.8969 20.1209 3.66474 20.2902C4.43257 20.4595 5.23076 20.4324 5.98536 20.2115C6.73994 19.9905 7.42649 19.5828 7.98141 19.026H7.97887Z" fill="#5B40FF"/>
</svg>
